<?xml version="1.0" encoding="UTF-8"?><svg id="_イヤー_2" xmlns="http://www.w3.org/2000/svg" viewBox="0 0 1040 1098.15"><defs><style>.cls-1{fill:#ad002d;}</style></defs><g id="logo"><g><g><path d="M25.39,934.3l40.61,102.93,41.54-110.31,40.15,110.31,42-102.93h25.38l-68.77,163.84-40.15-109.15-40.61,109.15L0,934.3H25.39Z"/><path d="M279.88,936.39c8.31,0,14.54,6.23,14.54,14.53s-6.23,14.54-14.54,14.54-14.54-6.23-14.54-14.54,6.23-14.53,14.54-14.53Zm11.31,54.69v97.15h-22.62v-97.15h22.62Z"/><path d="M378.57,920v168.23h-22.62v-168.23h22.62Z"/><path d="M465.75,920v168.23h-22.62v-168.23h22.62Z"/><path d="M749.89,920v79.74c-8.77-7-19.87-11.2-31.96-11.2-28.36,0-51.35,22.99-51.35,51.35s22.99,51.35,51.35,51.35c12.09,0,23.19-4.21,31.96-11.2v8.2h22.61v-168.23h-22.61Zm-30.6,151.71c-.46,.02-.9,.14-1.36,.14h0c-17.65,0-31.96-14.31-31.96-31.96h0c0-.47,.12-.9,.14-1.36,.73-17.01,14.64-30.6,31.83-30.6h0c.46,0,.9,.12,1.36,.14,16.55,.71,29.75,13.92,30.46,30.46,.02,.46,.14,.89,.14,1.36h0c0,17.19-13.59,31.1-30.6,31.83Z"/><path d="M1008.04,999.74v-8.67h-22.62v97.15h22.62v-48.34c0-17.65,14.31-31.96,31.96-31.96v-19.38c-12.09,0-23.19,4.21-31.96,11.2Z"/><path d="M622.66,1049.12c.55-3,.87-6.07,.87-9.23,0-28.36-22.99-51.35-51.35-51.35s-51.35,22.99-51.35,51.35,22.99,51.35,51.35,51.35c19.27,0,36.03-10.63,44.81-26.32l-16.96-9.67c-5.45,9.85-15.82,16.61-27.85,16.61-14.4,0-26.45-9.62-30.45-22.73h80.92Zm-80.92-18.46c3.99-13.11,16.05-22.73,30.45-22.73s26.45,9.63,30.44,22.73h-60.88Z"/><path d="M929.44,1049.12c.55-3,.87-6.07,.87-9.23,0-28.36-22.99-51.35-51.35-51.35s-51.35,22.99-51.35,51.35,22.99,51.35,51.35,51.35c19.27,0,36.03-10.63,44.81-26.32l-16.96-9.67c-5.45,9.85-15.82,16.61-27.85,16.61-14.4,0-26.45-9.62-30.45-22.73h80.92Zm-80.92-18.46c3.99-13.11,16.05-22.73,30.45-22.73s26.45,9.63,30.44,22.73h-60.88Z"/></g><g><path class="cls-1" d="M614.26,749.96c29.39,11.63,56.29,28.63,79.46,50.04h.09l78.48-181.34-204.17,117.88c15.73,3.01,31.18,7.49,46.15,13.42Z"/><path class="cls-1" d="M205.9,190.84C125.8,140.74,56.03,76.07,0,0L185.51,428.67l248.14-143.26c-80.49-18.7-157.46-50.61-227.75-94.57Z"/><polygon class="cls-1" points="207.89 480.41 265.84 614.34 943.44 223.13 1040 0 207.89 480.41"/><polygon class="cls-1" points="288.24 666.08 346.19 800 809.58 532.45 906.14 309.33 288.24 666.08"/></g></g></g></svg>